<?xml version="1.0" encoding="utf-8"?>
<!-- Generator: Adobe Illustrator 22.1.0, SVG Export Plug-In . SVG Version: 6.00 Build 0)  -->
<svg version="1.1" id="Camada_1" xmlns="http://www.w3.org/2000/svg" xmlns:xlink="http://www.w3.org/1999/xlink" x="0px" y="0px"
	 viewBox="0 0 583.5 271" style="enable-background:new 0 0 583.5 271;" xml:space="preserve">
<style type="text/css">
	.st0{fill:#FCAC65;}
	.st1{fill:#000099;}
	.st2{fill:#FCC492;}
</style>
<g>
	<g>
		<path class="st1" d="M178.3,88.2h-35.9c0.3,7.2,1.8,12.4,4.3,15.5c2.6,3.2,6.1,4.8,10.6,4.8c2.8,0,5.3-0.4,7.6-1.3
			c2.2-0.9,4.6-2.3,7-4.2l4.7,6.2c-5.8,5.2-12.4,7.7-19.7,7.7c-8.1,0-14.3-2.8-18.7-8.4c-4.4-5.6-6.6-13.4-6.6-23.5s2.1-18.1,6.3-24
			c4.2-5.9,10.1-8.9,17.6-8.9c7.4,0,13.1,2.6,17.1,7.9c4,5.3,6,12.8,6,22.6C178.5,84.4,178.5,86.2,178.3,88.2z M168.3,79.5
			c0-12.9-4.3-19.4-12.8-19.4c-3.9,0-7,1.6-9.3,4.9c-2.3,3.2-3.6,8.5-3.9,15.8h25.9V79.5z"/>
		<path class="st1" d="M228.2,59.2l-4.5,6.2c-2.5-1.7-4.8-3-7-3.9c-2.2-0.9-4.5-1.3-6.9-1.3c-3.2,0-5.7,0.8-7.6,2.3
			c-1.8,1.5-2.8,3.6-2.8,6.3c0,2.6,0.9,4.6,2.6,6.1c1.8,1.5,5.1,3,10,4.6c6.2,2,10.7,4.3,13.5,7.2s4.2,6.7,4.2,11.6
			c0,5.8-2.1,10.3-6.3,13.7c-4.2,3.3-9.5,5-15.8,5c-8.4,0-15.4-2.8-21.2-8.3l5.4-5.9c4.9,4,10.1,6,15.6,6c3.4,0,6.2-0.9,8.3-2.6
			c2.1-1.7,3.2-4.1,3.2-7.2c0-2.2-0.4-3.9-1.1-5.3c-0.7-1.3-2.1-2.5-4-3.6c-1.9-1.1-4.7-2.2-8.4-3.3c-5.9-2-10.1-4.3-12.7-7
			c-2.6-2.7-3.9-6.2-3.9-10.4c0-3.3,0.9-6.2,2.6-8.8c1.7-2.6,4.1-4.6,7.2-6.1c3.1-1.5,6.6-2.2,10.6-2.2
			C216.3,52.2,222.6,54.6,228.2,59.2z"/>
		<path class="st1" d="M272.5,112.7c-3.9,2.8-8.3,4.2-13,4.2c-5,0-8.9-1.4-11.6-4.3s-4-7-4-12.2V61.7h-8.8v-8h8.8V39.5l10.6-1.3
			v15.5H268l-1.2,8h-12.4v38.6c0,5.3,2.2,8,6.7,8c1.3,0,2.6-0.2,3.7-0.6c1.1-0.4,2.4-1,3.8-1.8L272.5,112.7z"/>
		<path class="st1" d="M312.3,53l-1.8,10.2c-1.5-0.5-3.1-0.7-4.8-0.7c-3.4,0-6.2,1.4-8.4,4.1c-2.2,2.7-3.9,6.9-5.1,12.6v36.2h-10.6
			V53.7h9.1l0.8,12.2c3.1-9.1,8.2-13.6,15.4-13.6C309,52.3,310.8,52.6,312.3,53z"/>
		<path class="st1" d="M362.4,88.2h-35.9c0.3,7.2,1.8,12.4,4.3,15.5c2.6,3.2,6.1,4.8,10.6,4.8c2.8,0,5.3-0.4,7.6-1.3
			c2.2-0.9,4.6-2.3,7-4.2l4.7,6.2c-5.8,5.2-12.4,7.7-19.7,7.7c-8.1,0-14.3-2.8-18.7-8.4c-4.4-5.6-6.6-13.4-6.6-23.5s2.1-18.1,6.3-24
			c4.2-5.9,10.1-8.9,17.6-8.9c7.4,0,13.1,2.6,17.1,7.9c4,5.3,6,12.8,6,22.6C362.6,84.4,362.5,86.2,362.4,88.2z M352.4,79.5
			c0-12.9-4.3-19.4-12.8-19.4c-3.9,0-7,1.6-9.3,4.9c-2.3,3.2-3.6,8.5-3.9,15.8h25.9V79.5z"/>
		<path class="st1" d="M59.3,216.2v-80.7h39.2l-1.2,8.4H70.2v28.2h23.5v8.4H70.2v35.7H59.3z"/>
		<path class="st1" d="M116.7,127.4c1.3,1.3,1.9,3,1.9,4.9c0,2-0.6,3.6-1.9,4.9c-1.3,1.3-2.9,1.9-5,1.9c-2,0-3.7-0.6-5-1.9
			c-1.3-1.3-1.9-2.9-1.9-4.9c0-2,0.6-3.6,1.9-4.9c1.3-1.3,3-2,5-2C113.8,125.4,115.4,126.1,116.7,127.4z M117,154.5v61.7h-10.6
			v-61.7H117z"/>
		<path class="st1" d="M175.2,157.8c2.8,3.2,4.2,7.7,4.2,13.4v44.9h-10.6v-43.6c0-4-0.7-6.9-2-8.6c-1.3-1.8-3.4-2.6-6.1-2.6
			c-5.2,0-9.9,3.7-14.1,11v43.9H136v-61.7h9.1l0.8,9.2c4.8-7.1,10.6-10.7,17.6-10.7C168.5,153,172.4,154.6,175.2,157.8z"/>
		<path class="st1" d="M237.4,207.7c0.7,1.2,1.8,2.1,3.3,2.8l-2.2,7.2c-3.1-0.5-5.4-1.4-7.2-2.8c-1.7-1.4-2.9-3.6-3.6-6.5
			c-4,6.3-9.6,9.4-16.8,9.4c-5.5,0-9.8-1.7-13-5.1c-3.2-3.4-4.8-8-4.8-13.7c0-6.6,2.1-11.6,6.5-15c4.3-3.4,10.4-5.2,18.4-5.2h8v-5.3
			c0-4.3-0.9-7.4-2.6-9.3c-1.8-1.9-4.6-2.9-8.6-2.9c-4.3,0-9.3,1.1-15,3.3l-2.6-7.4c6.9-2.8,13.3-4.2,19.2-4.2
			c13.4,0,20.1,6.7,20.1,20.1v29.1C236.3,204.6,236.7,206.5,237.4,207.7z M225.9,200.1v-14.5h-6.8c-10.2,0-15.3,4.3-15.3,12.8
			c0,3.7,0.8,6.5,2.5,8.4c1.6,2,4,2.9,7,2.9C218.8,209.8,223,206.5,225.9,200.1z"/>
		<path class="st1" d="M294.5,157.8c2.8,3.2,4.2,7.7,4.2,13.4v44.9h-10.6v-43.6c0-4-0.7-6.9-2-8.6c-1.3-1.8-3.4-2.6-6.1-2.6
			c-5.2,0-9.9,3.7-14.1,11v43.9h-10.6v-61.7h9.1l0.8,9.2c4.8-7.1,10.6-10.7,17.6-10.7C287.8,153,291.7,154.6,294.5,157.8z"/>
		<path class="st1" d="M347.7,154.6c2.7,1.1,5.4,2.8,7.9,5l-4.7,6.3c-1.9-1.5-3.8-2.6-5.6-3.3c-1.9-0.7-3.9-1.1-6.1-1.1
			c-4.6,0-8.2,2-10.7,5.9c-2.5,3.9-3.8,10-3.8,18.3c0,15.5,4.8,23.2,14.5,23.2c2.2,0,4.2-0.4,6-1.1c1.8-0.7,3.7-1.9,5.7-3.3l4.9,6.5
			c-5,4.5-10.7,6.8-17,6.8c-7.9,0-14.1-2.7-18.6-8.2c-4.5-5.5-6.7-13.4-6.7-23.7c0-6.7,1-12.6,3.1-17.5c2.1-4.9,5-8.7,8.8-11.4
			c3.8-2.7,8.2-4,13.3-4C341.9,153,344.9,153.5,347.7,154.6z"/>
		<path class="st1" d="M408.2,189h-35.9c0.3,7.2,1.8,12.4,4.3,15.5c2.6,3.2,6.1,4.8,10.6,4.8c2.8,0,5.3-0.4,7.6-1.3
			c2.2-0.9,4.6-2.3,7-4.2l4.7,6.2c-5.8,5.2-12.4,7.7-19.7,7.7c-8.1,0-14.3-2.8-18.7-8.4c-4.4-5.6-6.6-13.4-6.6-23.5s2.1-18.1,6.3-24
			c4.2-5.9,10.1-8.9,17.6-8.9c7.4,0,13.1,2.6,17.1,7.9c4,5.3,6,12.8,6,22.6C408.4,185.1,408.3,187,408.2,189z M398.2,180.3
			c0-12.9-4.3-19.4-12.8-19.4c-3.9,0-7,1.6-9.3,4.9c-2.3,3.2-3.6,8.5-3.9,15.8h25.9V180.3z"/>
		<path class="st1" d="M433.3,127.4c1.3,1.3,1.9,3,1.9,4.9c0,2-0.6,3.6-1.9,4.9c-1.3,1.3-2.9,1.9-5,1.9c-2,0-3.7-0.6-5-1.9
			c-1.3-1.3-1.9-2.9-1.9-4.9c0-2,0.6-3.6,1.9-4.9c1.3-1.3,3-2,5-2C430.4,125.4,432.1,126.1,433.3,127.4z M433.6,154.5v61.7h-10.6
			v-61.7H433.6z"/>
		<path class="st1" d="M483.3,153.8l-1.8,10.2c-1.5-0.5-3.1-0.7-4.8-0.7c-3.4,0-6.2,1.4-8.4,4.1c-2.2,2.7-3.9,6.9-5.1,12.6v36.2
			h-10.6v-61.7h9.1l0.8,12.2c3.1-9.1,8.2-13.6,15.4-13.6C480,153.1,481.8,153.3,483.3,153.8z"/>
		<path class="st1" d="M530.2,161.3c4.4,5.6,6.6,13.5,6.6,23.9c0,10-2.2,17.9-6.7,23.8c-4.5,5.8-10.6,8.7-18.4,8.7
			c-7.9,0-14.1-2.9-18.5-8.6c-4.4-5.7-6.6-13.6-6.6-23.8c0-10.2,2.2-18.2,6.7-23.9c4.5-5.7,10.6-8.5,18.5-8.5
			C519.7,153,525.8,155.8,530.2,161.3z M501.2,167.2c-2.4,3.9-3.6,9.9-3.6,18.1c0,16,4.7,24,14.1,24c9.4,0,14.1-8.1,14.1-24.2
			c0-8.2-1.2-14.2-3.5-18.1c-2.3-3.8-5.8-5.7-10.4-5.7C507.2,161.4,503.6,163.4,501.2,167.2z"/>
	</g>
	<g>
		<path class="st1" d="M119.3,46.8C119.3,46.8,119.3,46.8,119.3,46.8L119.3,46.8L119.3,46.8z"/>
	</g>
	<g>
		<path class="st1" d="M104.8,88.8l-15.5,0.2L79,70.5l-2.2,44.2H117c0,0-1.3-37-1.5-44.2L104.8,88.8z"/>
		<path class="st1" d="M123.7,24.9l-17.5,15.3l5.1-0.3L97.2,68.2L80.6,35.7H65.9l-6.5,79.1h9.4l4-68.1l2-0.2l17.8,33.4h8.7
			c0,0,13.7-28.3,17.6-36.4l3.1,4.7L123.7,24.9z"/>
	</g>
</g>
</svg>
